%TF.GenerationSoftware,KiCad,Pcbnew,7.0.10*%
%TF.CreationDate,2025-04-22T11:17:34+12:00*%
%TF.ProjectId,isa_monster_fdc,6973615f-6d6f-46e7-9374-65725f666463,1.0*%
%TF.SameCoordinates,Original*%
%TF.FileFunction,Soldermask,Bot*%
%TF.FilePolarity,Negative*%
%FSLAX46Y46*%
G04 Gerber Fmt 4.6, Leading zero omitted, Abs format (unit mm)*
G04 Created by KiCad (PCBNEW 7.0.10) date 2025-04-22 11:17:34*
%MOMM*%
%LPD*%
G01*
G04 APERTURE LIST*
G04 Aperture macros list*
%AMRoundRect*
0 Rectangle with rounded corners*
0 $1 Rounding radius*
0 $2 $3 $4 $5 $6 $7 $8 $9 X,Y pos of 4 corners*
0 Add a 4 corners polygon primitive as box body*
4,1,4,$2,$3,$4,$5,$6,$7,$8,$9,$2,$3,0*
0 Add four circle primitives for the rounded corners*
1,1,$1+$1,$2,$3*
1,1,$1+$1,$4,$5*
1,1,$1+$1,$6,$7*
1,1,$1+$1,$8,$9*
0 Add four rect primitives between the rounded corners*
20,1,$1+$1,$2,$3,$4,$5,0*
20,1,$1+$1,$4,$5,$6,$7,0*
20,1,$1+$1,$6,$7,$8,$9,0*
20,1,$1+$1,$8,$9,$2,$3,0*%
%AMFreePoly0*
4,1,19,0.500000,-0.750000,0.000000,-0.750000,0.000000,-0.744911,-0.071157,-0.744911,-0.207708,-0.704816,-0.327430,-0.627875,-0.420627,-0.520320,-0.479746,-0.390866,-0.500000,-0.250000,-0.500000,0.250000,-0.479746,0.390866,-0.420627,0.520320,-0.327430,0.627875,-0.207708,0.704816,-0.071157,0.744911,0.000000,0.744911,0.000000,0.750000,0.500000,0.750000,0.500000,-0.750000,0.500000,-0.750000,
$1*%
%AMFreePoly1*
4,1,19,0.000000,0.744911,0.071157,0.744911,0.207708,0.704816,0.327430,0.627875,0.420627,0.520320,0.479746,0.390866,0.500000,0.250000,0.500000,-0.250000,0.479746,-0.390866,0.420627,-0.520320,0.327430,-0.627875,0.207708,-0.704816,0.071157,-0.744911,0.000000,-0.744911,0.000000,-0.750000,-0.500000,-0.750000,-0.500000,0.750000,0.000000,0.750000,0.000000,0.744911,0.000000,0.744911,
$1*%
G04 Aperture macros list end*
%ADD10RoundRect,0.444500X-0.444500X-3.619500X0.444500X-3.619500X0.444500X3.619500X-0.444500X3.619500X0*%
%ADD11C,2.000000*%
%ADD12R,1.600000X1.600000*%
%ADD13C,1.600000*%
%ADD14O,1.600000X1.600000*%
%ADD15C,2.400000*%
%ADD16O,2.400000X2.400000*%
%ADD17R,1.600000X2.400000*%
%ADD18O,1.600000X2.400000*%
%ADD19C,4.000000*%
%ADD20R,1.700000X1.700000*%
%ADD21O,1.700000X1.700000*%
%ADD22R,1.422400X1.422400*%
%ADD23C,1.422400*%
%ADD24RoundRect,0.444500X-3.619500X0.444500X-3.619500X-0.444500X3.619500X-0.444500X3.619500X0.444500X0*%
%ADD25FreePoly0,90.000000*%
%ADD26FreePoly1,90.000000*%
G04 APERTURE END LIST*
D10*
%TO.C,BUS1*%
X111760000Y-145732500D03*
X116840000Y-145732500D03*
X137160000Y-145732500D03*
X139700000Y-145732500D03*
X167640000Y-145732500D03*
X175260000Y-145732500D03*
X185420000Y-145732500D03*
X182880000Y-145732500D03*
X180340000Y-145732500D03*
X177800000Y-145732500D03*
X172720000Y-145732500D03*
X170180000Y-145732500D03*
X165100000Y-145732500D03*
X162560000Y-145732500D03*
X160020000Y-145732500D03*
X157480000Y-145732500D03*
X154940000Y-145732500D03*
X152400000Y-145732500D03*
X149860000Y-145732500D03*
X147320000Y-145732500D03*
X144780000Y-145732500D03*
X142240000Y-145732500D03*
X134620000Y-145732500D03*
X132080000Y-145732500D03*
X129540000Y-145732500D03*
X127000000Y-145732500D03*
X124460000Y-145732500D03*
X121920000Y-145732500D03*
X119380000Y-145732500D03*
X114300000Y-145732500D03*
X109220000Y-145732500D03*
%TD*%
D11*
%TO.C,C7*%
X135636000Y-85638000D03*
X135636000Y-90638000D03*
%TD*%
%TO.C,C4*%
X160274000Y-113411000D03*
X160274000Y-118411000D03*
%TD*%
D12*
%TO.C,C13*%
X186690000Y-135128000D03*
D13*
X189190000Y-135128000D03*
%TD*%
D12*
%TO.C,RN1*%
X119634000Y-66167000D03*
D14*
X122174000Y-66167000D03*
X124714000Y-66167000D03*
X127254000Y-66167000D03*
X129794000Y-66167000D03*
X132334000Y-66167000D03*
%TD*%
D15*
%TO.C,R2*%
X127508000Y-129794000D03*
D16*
X140208000Y-129794000D03*
%TD*%
D17*
%TO.C,U4*%
X165613000Y-119721000D03*
D18*
X168153000Y-119721000D03*
X170693000Y-119721000D03*
X173233000Y-119721000D03*
X175773000Y-119721000D03*
X178313000Y-119721000D03*
X180853000Y-119721000D03*
X183393000Y-119721000D03*
X185933000Y-119721000D03*
X188473000Y-119721000D03*
X188473000Y-112101000D03*
X185933000Y-112101000D03*
X183393000Y-112101000D03*
X180853000Y-112101000D03*
X178313000Y-112101000D03*
X175773000Y-112101000D03*
X173233000Y-112101000D03*
X170693000Y-112101000D03*
X168153000Y-112101000D03*
X165613000Y-112101000D03*
%TD*%
D11*
%TO.C,C16*%
X179411000Y-127508000D03*
X174411000Y-127508000D03*
%TD*%
%TO.C,C10*%
X199644000Y-66976000D03*
X199644000Y-61976000D03*
%TD*%
%TO.C,C5*%
X99608000Y-103886000D03*
X104608000Y-103886000D03*
%TD*%
D19*
%TO.C,J3*%
X201953000Y-139192000D03*
X201953000Y-75692000D03*
D12*
X200533000Y-82512000D03*
D13*
X200533000Y-85282000D03*
X200533000Y-88052000D03*
X200533000Y-90822000D03*
X200533000Y-93592000D03*
X200533000Y-96362000D03*
X200533000Y-99132000D03*
X200533000Y-101902000D03*
X200533000Y-104672000D03*
X200533000Y-107442000D03*
X200533000Y-110212000D03*
X200533000Y-112982000D03*
X200533000Y-115752000D03*
X200533000Y-118522000D03*
X200533000Y-121292000D03*
X200533000Y-124062000D03*
X200533000Y-126832000D03*
X200533000Y-129602000D03*
X200533000Y-132372000D03*
X203373000Y-83897000D03*
X203373000Y-86667000D03*
X203373000Y-89437000D03*
X203373000Y-92207000D03*
X203373000Y-94977000D03*
X203373000Y-97747000D03*
X203373000Y-100517000D03*
X203373000Y-103287000D03*
X203373000Y-106057000D03*
X203373000Y-108827000D03*
X203373000Y-111597000D03*
X203373000Y-114367000D03*
X203373000Y-117137000D03*
X203373000Y-119907000D03*
X203373000Y-122677000D03*
X203373000Y-125447000D03*
X203373000Y-128217000D03*
X203373000Y-130987000D03*
%TD*%
D11*
%TO.C,C2*%
X80772000Y-113411000D03*
X80772000Y-118411000D03*
%TD*%
D17*
%TO.C,U3*%
X86868000Y-119721000D03*
D18*
X89408000Y-119721000D03*
X91948000Y-119721000D03*
X94488000Y-119721000D03*
X97028000Y-119721000D03*
X99568000Y-119721000D03*
X102108000Y-119721000D03*
X104648000Y-119721000D03*
X104648000Y-112101000D03*
X102108000Y-112101000D03*
X99568000Y-112101000D03*
X97028000Y-112101000D03*
X94488000Y-112101000D03*
X91948000Y-112101000D03*
X89408000Y-112101000D03*
X86868000Y-112101000D03*
%TD*%
D12*
%TO.C,RN2*%
X155448000Y-107188000D03*
D14*
X152908000Y-107188000D03*
X150368000Y-107188000D03*
X147828000Y-107188000D03*
X145288000Y-107188000D03*
X142748000Y-107188000D03*
%TD*%
D13*
%TO.C,C1*%
X119654000Y-79502000D03*
X122154000Y-79502000D03*
%TD*%
D11*
%TO.C,C6*%
X106248200Y-65633600D03*
X101248200Y-65633600D03*
%TD*%
D20*
%TO.C,J1*%
X85598000Y-55880000D03*
D21*
X85598000Y-53340000D03*
X88138000Y-55880000D03*
X88138000Y-53340000D03*
X90678000Y-55880000D03*
X90678000Y-53340000D03*
X93218000Y-55880000D03*
X93218000Y-53340000D03*
X95758000Y-55880000D03*
X95758000Y-53340000D03*
X98298000Y-55880000D03*
X98298000Y-53340000D03*
X100838000Y-55880000D03*
X100838000Y-53340000D03*
X103378000Y-55880000D03*
X103378000Y-53340000D03*
X105918000Y-55880000D03*
X105918000Y-53340000D03*
X108458000Y-55880000D03*
X108458000Y-53340000D03*
X110998000Y-55880000D03*
X110998000Y-53340000D03*
X113538000Y-55880000D03*
X113538000Y-53340000D03*
X116078000Y-55880000D03*
X116078000Y-53340000D03*
X118618000Y-55880000D03*
X118618000Y-53340000D03*
X121158000Y-55880000D03*
X121158000Y-53340000D03*
X123698000Y-55880000D03*
X123698000Y-53340000D03*
X126238000Y-55880000D03*
X126238000Y-53340000D03*
%TD*%
D11*
%TO.C,C11*%
X82550000Y-136104000D03*
X82550000Y-131104000D03*
%TD*%
D20*
%TO.C,JP3*%
X139192000Y-117435000D03*
D21*
X139192000Y-114895000D03*
X141732000Y-117435000D03*
X141732000Y-114895000D03*
X144272000Y-117435000D03*
X144272000Y-114895000D03*
X146812000Y-117435000D03*
X146812000Y-114895000D03*
X149352000Y-117435000D03*
X149352000Y-114895000D03*
X151892000Y-117435000D03*
X151892000Y-114895000D03*
X154432000Y-117435000D03*
X154432000Y-114895000D03*
%TD*%
D17*
%TO.C,U2*%
X116347000Y-119467000D03*
D18*
X118887000Y-119467000D03*
X121427000Y-119467000D03*
X123967000Y-119467000D03*
X126507000Y-119467000D03*
X129047000Y-119467000D03*
X131587000Y-119467000D03*
X134127000Y-119467000D03*
X134127000Y-111847000D03*
X131587000Y-111847000D03*
X129047000Y-111847000D03*
X126507000Y-111847000D03*
X123967000Y-111847000D03*
X121427000Y-111847000D03*
X118887000Y-111847000D03*
X116347000Y-111847000D03*
%TD*%
D11*
%TO.C,C9*%
X123825000Y-99822000D03*
X128825000Y-99822000D03*
%TD*%
%TO.C,C8*%
X120436000Y-74930000D03*
X125436000Y-74930000D03*
%TD*%
%TO.C,C12*%
X185928000Y-127508000D03*
X190928000Y-127508000D03*
%TD*%
%TO.C,C3*%
X110490000Y-113157000D03*
X110490000Y-118157000D03*
%TD*%
D22*
%TO.C,U1*%
X86995000Y-84455000D03*
D23*
X89535000Y-84455000D03*
X86995000Y-86995000D03*
X89535000Y-86995000D03*
X86995000Y-89535000D03*
X89535000Y-89535000D03*
X86995000Y-92075000D03*
X89535000Y-92075000D03*
X86995000Y-94615000D03*
X89535000Y-97155000D03*
X89535000Y-94615000D03*
X92075000Y-97155000D03*
X92075000Y-94615000D03*
X94615000Y-97155000D03*
X94615000Y-94615000D03*
X97155000Y-97155000D03*
X97155000Y-94615000D03*
X99695000Y-97155000D03*
X99695000Y-94615000D03*
X102235000Y-97155000D03*
X102235000Y-94615000D03*
X104775000Y-97155000D03*
X104775000Y-94615000D03*
X107315000Y-97155000D03*
X107315000Y-94615000D03*
X109855000Y-97155000D03*
X112395000Y-94615000D03*
X109855000Y-94615000D03*
X112395000Y-92075000D03*
X109855000Y-92075000D03*
X112395000Y-89535000D03*
X109855000Y-89535000D03*
X112395000Y-86995000D03*
X109855000Y-86995000D03*
X112395000Y-84455000D03*
X109855000Y-84455000D03*
X112395000Y-81915000D03*
X109855000Y-81915000D03*
X112395000Y-79375000D03*
X109855000Y-79375000D03*
X112395000Y-76835000D03*
X109855000Y-76835000D03*
X112395000Y-74295000D03*
X109855000Y-71755000D03*
X109855000Y-74295000D03*
X107315000Y-71755000D03*
X107315000Y-74295000D03*
X104775000Y-71755000D03*
X104775000Y-74295000D03*
X102235000Y-71755000D03*
X102235000Y-74295000D03*
X99695000Y-71755000D03*
X99695000Y-74295000D03*
X97155000Y-71755000D03*
X97155000Y-74295000D03*
X94615000Y-71755000D03*
X94615000Y-74295000D03*
X92075000Y-71755000D03*
X92075000Y-74295000D03*
X89535000Y-71755000D03*
X86995000Y-74295000D03*
X89535000Y-74295000D03*
X86995000Y-76835000D03*
X89535000Y-76835000D03*
X86995000Y-79375000D03*
X89535000Y-79375000D03*
X86995000Y-81915000D03*
X89535000Y-81915000D03*
%TD*%
D12*
%TO.C,C15*%
X90932000Y-136280651D03*
D13*
X90932000Y-133780651D03*
%TD*%
D12*
%TO.C,C17*%
X175504349Y-135001000D03*
D13*
X178004349Y-135001000D03*
%TD*%
D12*
%TO.C,C14*%
X76708000Y-70358000D03*
D13*
X76708000Y-67858000D03*
%TD*%
D24*
%TO.C,J4*%
X64996200Y-57541000D03*
X64996200Y-60081000D03*
X64996200Y-62621000D03*
X64996200Y-65161000D03*
X64996200Y-67701000D03*
X64996200Y-70241000D03*
X64996200Y-72781000D03*
X64996200Y-75321000D03*
X64996200Y-77861000D03*
X64996200Y-80401000D03*
X64996200Y-82941000D03*
X64996200Y-85481000D03*
X64996200Y-88021000D03*
X64996200Y-90561000D03*
X64996200Y-93101000D03*
X64996200Y-95641000D03*
X64996200Y-98181000D03*
%TD*%
D12*
%TO.C,X1*%
X129032000Y-84074000D03*
D13*
X121412000Y-84074000D03*
X121412000Y-91694000D03*
X129032000Y-91694000D03*
%TD*%
D15*
%TO.C,R1*%
X83312000Y-107696000D03*
D16*
X96012000Y-107696000D03*
%TD*%
D20*
%TO.C,J2*%
X147828000Y-56134000D03*
D21*
X147828000Y-53594000D03*
X150368000Y-56134000D03*
X150368000Y-53594000D03*
X152908000Y-56134000D03*
X152908000Y-53594000D03*
X155448000Y-56134000D03*
X155448000Y-53594000D03*
X157988000Y-56134000D03*
X157988000Y-53594000D03*
X160528000Y-56134000D03*
X160528000Y-53594000D03*
X163068000Y-56134000D03*
X163068000Y-53594000D03*
X165608000Y-56134000D03*
X165608000Y-53594000D03*
X168148000Y-56134000D03*
X168148000Y-53594000D03*
X170688000Y-56134000D03*
X170688000Y-53594000D03*
X173228000Y-56134000D03*
X173228000Y-53594000D03*
X175768000Y-56134000D03*
X175768000Y-53594000D03*
X178308000Y-56134000D03*
X178308000Y-53594000D03*
X180848000Y-56134000D03*
X180848000Y-53594000D03*
X183388000Y-56134000D03*
X183388000Y-53594000D03*
X185928000Y-56134000D03*
X185928000Y-53594000D03*
X188468000Y-56134000D03*
X188468000Y-53594000D03*
%TD*%
D15*
%TO.C,R3*%
X171958000Y-107188000D03*
D16*
X159258000Y-107188000D03*
%TD*%
D17*
%TO.C,U5*%
X140970000Y-95504000D03*
D18*
X143510000Y-95504000D03*
X146050000Y-95504000D03*
X148590000Y-95504000D03*
X151130000Y-95504000D03*
X153670000Y-95504000D03*
X156210000Y-95504000D03*
X158750000Y-95504000D03*
X161290000Y-95504000D03*
X163830000Y-95504000D03*
X166370000Y-95504000D03*
X168910000Y-95504000D03*
X171450000Y-95504000D03*
X173990000Y-95504000D03*
X173990000Y-80264000D03*
X171450000Y-80264000D03*
X168910000Y-80264000D03*
X166370000Y-80264000D03*
X163830000Y-80264000D03*
X161290000Y-80264000D03*
X158750000Y-80264000D03*
X156210000Y-80264000D03*
X153670000Y-80264000D03*
X151130000Y-80264000D03*
X148590000Y-80264000D03*
X146050000Y-80264000D03*
X143510000Y-80264000D03*
X140970000Y-80264000D03*
%TD*%
D25*
%TO.C,JP1*%
X204978000Y-69484000D03*
D26*
X204978000Y-68184000D03*
%TD*%
D25*
%TO.C,JP2*%
X208788000Y-69484000D03*
D26*
X208788000Y-68184000D03*
%TD*%
G36*
X187902121Y-141625002D02*
G01*
X187948614Y-141678658D01*
X187960000Y-141731000D01*
X187960000Y-149734000D01*
X187939998Y-149802121D01*
X187886342Y-149848614D01*
X187834000Y-149860000D01*
X106806000Y-149860000D01*
X106737879Y-149839998D01*
X106691386Y-149786342D01*
X106680000Y-149734000D01*
X106680000Y-141731000D01*
X106700002Y-141662879D01*
X106753658Y-141616386D01*
X106806000Y-141605000D01*
X187834000Y-141605000D01*
X187902121Y-141625002D01*
G37*
M02*
