M48
; DRILL file {KiCad 7.0.10} date Tue Apr 22 11:17:42 2025
; FORMAT={-:-/ absolute / metric / decimal}
; #@! TF.CreationDate,2025-04-22T11:17:42+12:00
; #@! TF.GenerationSoftware,Kicad,Pcbnew,7.0.10
; #@! TF.FileFunction,Plated,1,2,PTH
FMAT,2
METRIC
; #@! TA.AperFunction,Plated,PTH,ViaDrill
T1C0.400
; #@! TA.AperFunction,Plated,PTH,ViaDrill
T2C0.600
; #@! TA.AperFunction,Plated,PTH,ComponentDrill
T3C0.800
; #@! TA.AperFunction,Plated,PTH,ComponentDrill
T4C1.000
; #@! TA.AperFunction,Plated,PTH,ComponentDrill
T5C1.200
; #@! TA.AperFunction,Plated,PTH,ComponentDrill
T6C3.200
%
G90
G05
T1
X72.339Y-69.088
X72.441Y-72.085
X72.897Y-62.967
X72.898Y-61.773
X72.949Y-60.452
X73.832Y-85.477
X74.498Y-95.631
X74.573Y-98.171
X74.6Y-76.886
X74.726Y-51.714
X75.056Y-81.678
X75.057Y-61.849
X75.057Y-77.927
X75.057Y-79.299
X75.059Y-80.459
X75.133Y-82.982
X75.171Y-73.647
X75.171Y-75.895
X76.022Y-59.944
X76.175Y-64.11
X76.302Y-51.664
X76.314Y-61.862
X76.937Y-60.655
X77.368Y-63.576
X77.775Y-59.131
X78.054Y-51.613
X78.384Y-95.606
X78.41Y-98.146
X78.994Y-79.223
X78.995Y-77.927
X79.07Y-80.34
X79.07Y-82.906
X79.096Y-81.534
X79.477Y-50.825
X81.001Y-63.475
X82.067Y-66.929
X82.067Y-80.62
X82.652Y-64.439
X82.677Y-77.978
X82.803Y-68.148
X86.766Y-64.872
X86.868Y-122.936
X87.986Y-65.202
X89.281Y-129.604
X90.17Y-130.492
X91.059Y-131.445
X91.288Y-80.416
X91.567Y-63.627
X91.872Y-52.02
X92.075Y-89.535
X92.71Y-127.127
X92.837Y-85.827
X93.345Y-57.912
X93.434Y-58.964
X94.424Y-127.191
X94.615Y-123.952
X95.123Y-126.365
X95.25Y-59.376
X96.139Y-64.414
X96.647Y-131.318
X97.206Y-77.419
X97.282Y-62.992
X99.543Y-78.207
X99.568Y-125.603
X100.838Y-124.778
X101.321Y-76.835
X103.378Y-133.35
X105.613Y-92.05
X106.807Y-107.696
X108.204Y-106.553
X108.458Y-132.08
X108.712Y-59.055
X109.728Y-63.755
X110.998Y-132.016
X111.633Y-128.143
X112.522Y-127.254
X113.919Y-126.428
X114.554Y-93.218
X114.935Y-125.603
X116.332Y-76.835
X116.713Y-97.155
X117.216Y-82.296
X117.348Y-58.547
X117.475Y-92.837
X118.11Y-70.612
X118.11Y-87.122
X118.364Y-95.631
X119.888Y-57.658
X120.142Y-122.936
X122.252Y-123.444
X122.428Y-124.714
X125.222Y-107.506
X125.73Y-80.772
X126.238Y-122.428
X127.127Y-80.645
X127.381Y-122.428
X127.762Y-107.442
X128.651Y-80.645
X129.54Y-79.756
X130.81Y-88.265
X131.318Y-83.058
X131.318Y-86.868
X133.096Y-88.773
X134.493Y-99.188
X134.493Y-134.366
X135.255Y-98.171
X135.509Y-101.727
X136.144Y-97.536
X136.271Y-100.711
X136.906Y-96.774
X137.033Y-101.473
X137.033Y-104.775
X137.159Y-99.887
X138.43Y-66.929
X138.43Y-104.775
X140.843Y-101.473
X142.113Y-112.903
X143.129Y-86.36
X143.256Y-112.014
X143.764Y-104.013
X144.622Y-101.885
X145.288Y-104.14
X145.542Y-89.281
X146.558Y-90.043
X146.558Y-101.346
X148.336Y-89.281
X148.336Y-102.87
X150.495Y-111.887
X150.622Y-120.015
X151.13Y-100.711
X151.257Y-90.043
X152.908Y-102.108
X153.924Y-99.887
X155.067Y-104.012
X155.575Y-85.979
X156.083Y-138.938
X156.21Y-114.046
X156.337Y-99.187
X156.845Y-70.358
X157.607Y-85.979
X158.75Y-98.996
X158.75Y-134.62
X159.258Y-64.77
X159.766Y-104.14
X160.02Y-137.795
X160.389Y-129.909
X160.401Y-123.317
X160.655Y-133.35
X160.655Y-134.747
X161.29Y-98.425
X161.29Y-111.887
X161.671Y-62.992
X161.734Y-102.933
X162.052Y-50.038
X162.56Y-85.979
X162.56Y-101.219
X163.449Y-111.252
X163.703Y-124.079
X163.703Y-130.873
X163.83Y-93.218
X163.957Y-105.156
X163.957Y-134.239
X163.957Y-135.509
X164.211Y-65.913
X164.719Y-101.092
X164.973Y-51.562
X164.973Y-105.41
X164.973Y-124.079
X165.1Y-88.011
X165.1Y-130.048
X165.227Y-81.915
X165.735Y-109.918
X165.989Y-106.172
X166.243Y-101.283
X166.624Y-132.334
X166.751Y-137.795
X166.878Y-63.881
X167.005Y-51.562
X167.132Y-49.276
X167.513Y-99.568
X167.64Y-82.042
X167.64Y-87.249
X168.148Y-102.108
X168.783Y-102.997
X168.91Y-133.477
X168.91Y-136.779
X170.18Y-98.616
X170.225Y-86.36
X170.307Y-82.042
X170.688Y-124.841
X172.085Y-61.976
X172.72Y-85.725
X173.228Y-49.911
X173.99Y-84.709
X173.99Y-102.985
X174.752Y-61.214
X175.641Y-102.108
X175.768Y-97.917
X175.895Y-109.855
X176.784Y-129.921
X177.165Y-101.207
X177.292Y-61.341
X177.419Y-117.348
X177.673Y-97.917
X178.181Y-115.062
X178.181Y-116.332
X178.562Y-98.742
X178.816Y-139.827
X179.406Y-99.333
X179.578Y-67.818
X180.625Y-99.537
X180.853Y-115.189
X180.975Y-68.58
X181.61Y-69.469
X182.499Y-66.167
X182.753Y-137.16
X183.642Y-71.247
X184.531Y-68.58
X185.42Y-66.167
X185.674Y-67.945
X185.928Y-114.554
X186.69Y-61.214
X188.087Y-61.087
X188.595Y-62.103
X189.738Y-67.818
X191.516Y-63.881
X192.532Y-65.913
X192.659Y-63.881
X194.437Y-64.77
X195.2Y-65.532
X195.2Y-66.929
T2
X76.073Y-101.727
X76.581Y-113.411
X76.835Y-76.581
X110.5Y-136.779
X184.785Y-133.223
X185.42Y-139.51
X187.833Y-123.063
X193.199Y-133.318
T3
X76.708Y-67.858
X76.708Y-70.358
X86.868Y-112.101
X86.868Y-119.721
X86.995Y-74.295
X86.995Y-76.835
X86.995Y-79.375
X86.995Y-81.915
X86.995Y-84.455
X86.995Y-86.995
X86.995Y-89.535
X86.995Y-92.075
X86.995Y-94.615
X89.408Y-112.101
X89.408Y-119.721
X89.535Y-71.755
X89.535Y-74.295
X89.535Y-76.835
X89.535Y-79.375
X89.535Y-81.915
X89.535Y-84.455
X89.535Y-86.995
X89.535Y-89.535
X89.535Y-92.075
X89.535Y-94.615
X89.535Y-97.155
X90.932Y-133.781
X90.932Y-136.281
X91.948Y-112.101
X91.948Y-119.721
X92.075Y-71.755
X92.075Y-74.295
X92.075Y-94.615
X92.075Y-97.155
X94.488Y-112.101
X94.488Y-119.721
X94.615Y-71.755
X94.615Y-74.295
X94.615Y-94.615
X94.615Y-97.155
X97.028Y-112.101
X97.028Y-119.721
X97.155Y-71.755
X97.155Y-74.295
X97.155Y-94.615
X97.155Y-97.155
X99.568Y-112.101
X99.568Y-119.721
X99.695Y-71.755
X99.695Y-74.295
X99.695Y-94.615
X99.695Y-97.155
X102.108Y-112.101
X102.108Y-119.721
X102.235Y-71.755
X102.235Y-74.295
X102.235Y-94.615
X102.235Y-97.155
X104.648Y-112.101
X104.648Y-119.721
X104.775Y-71.755
X104.775Y-74.295
X104.775Y-94.615
X104.775Y-97.155
X107.315Y-71.755
X107.315Y-74.295
X107.315Y-94.615
X107.315Y-97.155
X109.855Y-71.755
X109.855Y-74.295
X109.855Y-76.835
X109.855Y-79.375
X109.855Y-81.915
X109.855Y-84.455
X109.855Y-86.995
X109.855Y-89.535
X109.855Y-92.075
X109.855Y-94.615
X109.855Y-97.155
X112.395Y-74.295
X112.395Y-76.835
X112.395Y-79.375
X112.395Y-81.915
X112.395Y-84.455
X112.395Y-86.995
X112.395Y-89.535
X112.395Y-92.075
X112.395Y-94.615
X116.347Y-111.847
X116.347Y-119.467
X118.887Y-111.847
X118.887Y-119.467
X119.634Y-66.167
X119.654Y-79.502
X121.412Y-84.074
X121.412Y-91.694
X121.427Y-111.847
X121.427Y-119.467
X122.154Y-79.502
X122.174Y-66.167
X123.967Y-111.847
X123.967Y-119.467
X124.714Y-66.167
X126.507Y-111.847
X126.507Y-119.467
X127.254Y-66.167
X129.032Y-84.074
X129.032Y-91.694
X129.047Y-111.847
X129.047Y-119.467
X129.794Y-66.167
X131.587Y-111.847
X131.587Y-119.467
X132.334Y-66.167
X134.127Y-111.847
X134.127Y-119.467
X140.97Y-80.264
X140.97Y-95.504
X142.748Y-107.188
X143.51Y-80.264
X143.51Y-95.504
X145.288Y-107.188
X146.05Y-80.264
X146.05Y-95.504
X147.828Y-107.188
X148.59Y-80.264
X148.59Y-95.504
X150.368Y-107.188
X151.13Y-80.264
X151.13Y-95.504
X152.908Y-107.188
X153.67Y-80.264
X153.67Y-95.504
X155.448Y-107.188
X156.21Y-80.264
X156.21Y-95.504
X158.75Y-80.264
X158.75Y-95.504
X161.29Y-80.264
X161.29Y-95.504
X163.83Y-80.264
X163.83Y-95.504
X165.613Y-112.101
X165.613Y-119.721
X166.37Y-80.264
X166.37Y-95.504
X168.153Y-112.101
X168.153Y-119.721
X168.91Y-80.264
X168.91Y-95.504
X170.693Y-112.101
X170.693Y-119.721
X171.45Y-80.264
X171.45Y-95.504
X173.233Y-112.101
X173.233Y-119.721
X173.99Y-80.264
X173.99Y-95.504
X175.504Y-135.001
X175.773Y-112.101
X175.773Y-119.721
X178.004Y-135.001
X178.313Y-112.101
X178.313Y-119.721
X180.853Y-112.101
X180.853Y-119.721
X183.393Y-112.101
X183.393Y-119.721
X185.933Y-112.101
X185.933Y-119.721
X186.69Y-135.128
X188.473Y-112.101
X188.473Y-119.721
X189.19Y-135.128
T4
X80.772Y-113.411
X80.772Y-118.411
X82.55Y-131.104
X82.55Y-136.104
X85.598Y-53.34
X85.598Y-55.88
X88.138Y-53.34
X88.138Y-55.88
X90.678Y-53.34
X90.678Y-55.88
X93.218Y-53.34
X93.218Y-55.88
X95.758Y-53.34
X95.758Y-55.88
X98.298Y-53.34
X98.298Y-55.88
X99.608Y-103.886
X100.838Y-53.34
X100.838Y-55.88
X101.248Y-65.634
X103.378Y-53.34
X103.378Y-55.88
X104.608Y-103.886
X105.918Y-53.34
X105.918Y-55.88
X106.248Y-65.634
X108.458Y-53.34
X108.458Y-55.88
X110.49Y-113.157
X110.49Y-118.157
X110.998Y-53.34
X110.998Y-55.88
X113.538Y-53.34
X113.538Y-55.88
X116.078Y-53.34
X116.078Y-55.88
X118.618Y-53.34
X118.618Y-55.88
X120.436Y-74.93
X121.158Y-53.34
X121.158Y-55.88
X123.698Y-53.34
X123.698Y-55.88
X123.825Y-99.822
X125.436Y-74.93
X126.238Y-53.34
X126.238Y-55.88
X128.825Y-99.822
X135.636Y-85.638
X135.636Y-90.638
X139.192Y-114.895
X139.192Y-117.435
X141.732Y-114.895
X141.732Y-117.435
X144.272Y-114.895
X144.272Y-117.435
X146.812Y-114.895
X146.812Y-117.435
X147.828Y-53.594
X147.828Y-56.134
X149.352Y-114.895
X149.352Y-117.435
X150.368Y-53.594
X150.368Y-56.134
X151.892Y-114.895
X151.892Y-117.435
X152.908Y-53.594
X152.908Y-56.134
X154.432Y-114.895
X154.432Y-117.435
X155.448Y-53.594
X155.448Y-56.134
X157.988Y-53.594
X157.988Y-56.134
X160.274Y-113.411
X160.274Y-118.411
X160.528Y-53.594
X160.528Y-56.134
X163.068Y-53.594
X163.068Y-56.134
X165.608Y-53.594
X165.608Y-56.134
X168.148Y-53.594
X168.148Y-56.134
X170.688Y-53.594
X170.688Y-56.134
X173.228Y-53.594
X173.228Y-56.134
X174.411Y-127.508
X175.768Y-53.594
X175.768Y-56.134
X178.308Y-53.594
X178.308Y-56.134
X179.411Y-127.508
X180.848Y-53.594
X180.848Y-56.134
X183.388Y-53.594
X183.388Y-56.134
X185.928Y-53.594
X185.928Y-56.134
X185.928Y-127.508
X188.468Y-53.594
X188.468Y-56.134
X190.928Y-127.508
X199.644Y-61.976
X199.644Y-66.976
X200.533Y-82.512
X200.533Y-85.282
X200.533Y-88.052
X200.533Y-90.822
X200.533Y-93.592
X200.533Y-96.362
X200.533Y-99.132
X200.533Y-101.902
X200.533Y-104.672
X200.533Y-107.442
X200.533Y-110.212
X200.533Y-112.982
X200.533Y-115.752
X200.533Y-118.522
X200.533Y-121.292
X200.533Y-124.062
X200.533Y-126.832
X200.533Y-129.602
X200.533Y-132.372
X203.373Y-83.897
X203.373Y-86.667
X203.373Y-89.437
X203.373Y-92.207
X203.373Y-94.977
X203.373Y-97.747
X203.373Y-100.517
X203.373Y-103.287
X203.373Y-106.057
X203.373Y-108.827
X203.373Y-111.597
X203.373Y-114.367
X203.373Y-117.137
X203.373Y-119.907
X203.373Y-122.677
X203.373Y-125.447
X203.373Y-128.217
X203.373Y-130.987
T5
X83.312Y-107.696
X96.012Y-107.696
X127.508Y-129.794
X140.208Y-129.794
X159.258Y-107.188
X171.958Y-107.188
T6
X201.953Y-75.692
X201.953Y-139.192
M30
