%TF.GenerationSoftware,KiCad,Pcbnew,7.0.10*%
%TF.CreationDate,2025-04-22T11:17:34+12:00*%
%TF.ProjectId,isa_monster_fdc,6973615f-6d6f-46e7-9374-65725f666463,1.0*%
%TF.SameCoordinates,Original*%
%TF.FileFunction,Profile,NP*%
%FSLAX46Y46*%
G04 Gerber Fmt 4.6, Leading zero omitted, Abs format (unit mm)*
G04 Created by KiCad (PCBNEW 7.0.10) date 2025-04-22 11:17:34*
%MOMM*%
%LPD*%
G01*
G04 APERTURE LIST*
%TA.AperFunction,Profile*%
%ADD10C,0.381000*%
%TD*%
G04 APERTURE END LIST*
D10*
X71120000Y-139700000D02*
G75*
G03*
X73660000Y-142240000I2540000J0D01*
G01*
X186833719Y-149859920D02*
G75*
G03*
X187960298Y-148589701I40681J1098620D01*
G01*
X60858400Y-61137800D02*
X68961000Y-61137800D01*
X208280000Y-142240000D02*
G75*
G03*
X210820000Y-139700000I0J2540000D01*
G01*
X71120000Y-139700000D02*
X71120000Y-100698269D01*
X106679972Y-148252754D02*
G75*
G03*
X108331077Y-149860000I1474228J-137246D01*
G01*
X62466443Y-55000000D02*
X70000000Y-55000000D01*
X73660000Y-48260000D02*
X208280000Y-48260000D01*
X68961000Y-61137800D02*
X68961000Y-61544200D01*
X108331000Y-149860000D02*
X186840000Y-149860000D01*
X68961000Y-61544200D02*
X60858400Y-61544200D01*
X62522816Y-100698269D02*
X69949200Y-100698269D01*
X73660000Y-142240000D02*
X106680000Y-142240000D01*
X187960000Y-142240000D02*
X208280000Y-142240000D01*
X70000000Y-55000000D02*
X71120000Y-55000000D01*
X73660000Y-48260000D02*
G75*
G03*
X71120000Y-50800000I0J-2540000D01*
G01*
X106680000Y-142240000D02*
X106680000Y-148260000D01*
X60858400Y-61137800D02*
X60858400Y-56651077D01*
X210820000Y-50800000D02*
G75*
G03*
X208280000Y-48260000I-2540000J0D01*
G01*
X210820000Y-50800000D02*
X210820000Y-139700000D01*
X62466446Y-54999972D02*
G75*
G03*
X60859200Y-56651077I-137246J-1474228D01*
G01*
X187960000Y-142240000D02*
X187960000Y-148590000D01*
X69949200Y-100698269D02*
X71120000Y-100698269D01*
X60858400Y-61544200D02*
X60858400Y-99091026D01*
X71120000Y-55000000D02*
X71120000Y-50800000D01*
X60871702Y-99091023D02*
G75*
G03*
X62522816Y-100698268I1474198J-137277D01*
G01*
M02*
